<?xml version="1.0" standalone="no"?>
<!DOCTYPE svg PUBLIC "-//W3C//DTD SVG 20010904//EN"
 "http://www.w3.org/TR/2001/REC-SVG-20010904/DTD/svg10.dtd">
<svg version="1.0" xmlns="http://www.w3.org/2000/svg"
 width="400.000000pt" height="400.000000pt" viewBox="0 0 400.000000 400.000000"
 preserveAspectRatio="xMidYMid meet">
<metadata>
Created by potrace 1.15, written by Peter Selinger 2001-2017
</metadata>
<g transform="translate(0.000000,400.000000) scale(0.100000,-0.100000)"
fill="#000000" stroke="none">
<path d="M2330 3852 c0 -6 -10 -8 -22 -6 -23 5 -23 4 -2 -5 25 -11 41 -31 25
-31 -6 0 -11 -5 -11 -11 0 -6 7 -9 15 -5 8 3 14 0 12 -7 -5 -28 -47 -37 -47
-11 0 14 -8 16 -53 11 -42 -4 -57 -1 -76 14 -13 10 -28 19 -35 19 -7 0 -6 -4
2 -9 16 -10 25 -111 11 -111 -11 0 -69 60 -69 71 0 7 -51 31 -56 26 -3 -2 2
-17 11 -33 19 -36 20 -84 2 -84 -7 0 -23 18 -35 39 -21 37 -48 58 -60 46 -3
-3 -2 -5 3 -5 4 0 2 -7 -5 -15 -7 -8 -16 -15 -21 -15 -5 0 -6 7 -3 15 14 36
-46 5 -113 -59 -24 -22 -43 -46 -43 -53 0 -7 -5 -13 -11 -13 -6 0 -9 -7 -5
-15 3 -8 0 -14 -7 -12 -13 2 -13 -5 -2 -38 7 -20 6 -20 -9 -1 -21 26 -33 12
-16 -18 7 -14 10 -34 7 -46 -4 -16 -2 -20 10 -16 8 3 16 6 18 6 2 0 1 9 -2 21
-3 11 -1 30 5 42 6 12 16 40 21 62 16 61 31 76 81 79 25 2 65 11 90 20 31 10
46 12 49 4 2 -6 16 -25 32 -42 20 -22 29 -26 29 -15 0 9 7 30 16 48 16 32 16
32 38 13 38 -34 46 -35 72 -7 13 14 30 23 37 20 15 -8 -23 23 -43 35 -8 5 -12
12 -8 15 4 4 22 -3 39 -16 18 -13 40 -24 49 -24 51 -4 51 -4 40 -25 -6 -11 -8
-25 -5 -30 3 -5 1 -11 -5 -15 -15 -9 -12 -22 6 -29 11 -4 14 -1 10 12 -7 21
13 54 21 35 3 -10 10 -10 26 2 31 21 61 20 52 -2 -4 -10 -9 -36 -12 -59 -5
-37 -2 -43 26 -63 l31 -22 0 25 c0 41 31 96 54 96 16 0 17 -3 8 -12 -15 -15
-16 -48 -1 -48 5 0 8 -4 5 -9 -7 -11 18 -33 27 -24 4 3 7 20 7 37 l0 31 19
-24 c25 -33 26 -81 0 -81 -10 0 -19 -5 -19 -11 0 -7 13 -9 38 -5 l37 6 -32
-14 c-45 -20 -41 -29 10 -22 23 3 33 2 22 -1 -11 -3 -25 -9 -31 -14 -5 -4 -21
-5 -34 -2 -15 4 -21 3 -16 -5 3 -6 -2 -17 -13 -24 -18 -13 -17 -15 27 -27 69
-19 104 -32 132 -51 14 -9 48 -25 75 -35 28 -10 55 -24 61 -32 6 -7 18 -13 27
-13 9 0 18 -4 21 -9 3 -4 20 -11 37 -15 18 -3 47 -17 65 -31 38 -29 56 -32 48
-7 -4 10 -2 13 3 7 9 -11 149 -85 160 -85 5 0 -5 9 -21 19 -26 17 -27 20 -10
29 11 6 16 13 13 17 -4 3 -14 -1 -22 -10 -16 -16 -37 -20 -37 -7 0 4 -14 16
-30 27 -31 21 -41 41 -15 31 8 -3 15 -1 15 4 0 6 -4 10 -9 10 -12 0 -83 71
-77 77 3 3 19 -5 35 -17 17 -12 31 -17 31 -12 0 14 -106 65 -120 57 -6 -4 -35
8 -65 26 -37 22 -51 36 -42 41 20 13 36 9 56 -11 11 -11 37 -23 58 -27 l38 -7
-19 22 c-19 21 -19 21 7 21 15 0 27 5 27 10 0 6 -5 10 -11 10 -18 0 -4 23 16
26 10 1 25 10 34 20 15 15 11 16 -59 11 -42 -4 -69 -3 -61 2 10 6 10 10 1 16
-6 4 -17 2 -23 -4 -18 -18 -77 -14 -77 5 0 11 -6 15 -20 11 -11 -3 -18 -1 -15
3 7 12 -84 63 -100 56 -8 -3 -16 0 -19 7 -2 7 -5 8 -5 2 0 -5 4 -17 9 -25 9
-13 11 -13 19 -1 7 10 9 7 8 -12 -2 -33 -7 -33 -41 -2 -15 14 -32 23 -37 20
-5 -3 -6 0 -4 8 5 13 -40 71 -57 73 -4 1 -13 2 -19 3 -6 0 -9 10 -6 22 4 16 2
19 -11 14 -9 -4 -24 -8 -32 -9 -8 0 -23 -12 -32 -26 -21 -29 -25 -9 -8 35 9
23 6 30 -24 60 -19 19 -40 46 -48 61 -13 28 -38 44 -38 26z"/>
<path d="M1365 3638 c-11 -6 -28 -20 -37 -31 -9 -10 -21 -16 -27 -13 -17 11
-61 -5 -61 -22 0 -12 -3 -13 -12 -4 -17 17 -28 15 -28 -7 0 -11 9 -23 20 -26
21 -7 28 -25 10 -25 -5 0 -10 5 -10 10 0 6 -5 10 -11 10 -6 0 -9 -6 -6 -14 4
-10 0 -12 -16 -8 -20 5 -20 4 -8 -11 11 -15 11 -17 -2 -17 -8 0 -17 -3 -19 -7
-1 -5 -22 -20 -45 -36 -24 -15 -43 -34 -43 -42 0 -9 -13 -18 -30 -21 -34 -7
-41 -24 -9 -24 12 0 18 -4 13 -11 -4 -7 7 -1 24 11 31 23 57 21 34 -2 -14 -14
-16 -32 -3 -24 5 3 8 -5 7 -19 0 -16 -6 -23 -13 -20 -7 2 -13 0 -13 -4 0 -5
-8 -7 -18 -4 -10 2 -24 -2 -30 -9 -9 -12 -3 -14 33 -13 25 1 45 -1 45 -5 0 -3
-11 -17 -24 -29 l-25 -23 -33 23 c-22 15 -28 17 -19 6 8 -10 11 -21 7 -24 -4
-4 -11 -1 -16 7 -6 8 -10 10 -10 4 0 -6 9 -19 20 -29 11 -10 20 -23 20 -28 0
-6 -3 -7 -6 -4 -7 7 -54 -42 -54 -55 0 -3 -3 -14 -6 -22 -6 -15 -3 -14 24 1
17 10 28 23 25 31 -3 7 3 15 14 18 10 3 27 17 36 32 l17 27 -6 -41 c-5 -33 -2
-48 15 -70 20 -27 20 -36 13 -129 -5 -55 -7 -106 -4 -112 7 -21 20 -15 20 10
-1 12 3 68 7 124 6 75 5 106 -4 117 -7 8 -9 25 -5 41 4 17 9 22 14 15 4 -7 20
6 43 37 23 31 32 52 26 59 -6 7 -4 22 6 40 8 16 15 35 15 43 0 8 25 44 56 82
40 49 54 74 49 88 -4 14 9 36 46 82 29 34 47 59 41 55 -7 -4 -12 -1 -12 8 0
19 -8 20 -35 4z"/>
<path d="M2555 3089 c-16 -5 -40 -6 -54 -2 -17 4 -22 2 -17 -6 10 -15 103 -14
109 2 2 6 8 9 12 4 5 -4 0 -14 -11 -21 -21 -16 -20 -17 53 -36 52 -13 62 -27
28 -36 -39 -10 -15 -27 40 -28 25 -1 45 -4 45 -8 0 -5 -7 -8 -15 -8 -22 0 -18
-18 5 -25 29 -9 24 -25 -7 -26 -16 0 -21 -3 -13 -6 53 -19 80 -37 78 -51 -2
-9 2 -17 9 -17 22 0 25 -13 9 -38 -16 -23 -15 -25 9 -41 14 -9 25 -22 25 -29
0 -8 -3 -8 -9 2 -5 7 -14 12 -21 9 -8 -2 -1 -16 19 -36 22 -21 34 -44 36 -67
2 -19 -1 -32 -6 -29 -11 7 -11 -27 0 -45 5 -7 14 -10 20 -7 6 4 11 0 11 -8 0
-9 -5 -16 -11 -16 -8 0 -7 -5 1 -15 7 -9 10 -18 6 -22 -3 -3 -6 -1 -6 5 0 17
-17 15 -24 -4 -3 -8 -2 -12 4 -9 6 4 8 -6 6 -24 -2 -17 3 -39 10 -48 7 -10 11
-27 10 -38 -2 -11 -1 -14 1 -7 4 10 8 10 18 2 8 -7 16 -7 19 -2 3 6 -1 15 -9
22 -8 7 -15 19 -15 26 0 8 -5 14 -11 14 -18 0 19 30 52 42 23 8 29 15 26 29
-5 20 7 26 18 9 3 -5 13 -10 21 -10 8 0 14 5 14 10 0 6 -6 10 -13 10 -15 0
-47 31 -47 44 0 5 9 6 20 3 35 -9 80 53 48 66 -7 3 -3 6 9 6 22 1 44 21 23 21
-24 0 -2 24 34 36 34 12 41 11 75 -9 20 -12 46 -27 56 -33 11 -6 25 -29 30
-52 15 -61 29 -65 22 -5 -6 52 -24 93 -41 93 -5 0 -25 12 -45 27 -38 29 -60
31 -98 6 -17 -12 -27 -13 -35 -5 -17 17 -3 37 51 72 28 19 51 37 51 43 0 5 20
-13 45 -40 25 -26 45 -43 45 -38 0 6 -23 34 -50 64 -54 58 -59 66 -32 57 10
-4 7 2 -8 14 -14 11 -19 20 -12 20 24 0 12 21 -19 32 -23 8 -27 13 -17 19 24
16 -11 10 -44 -7 -25 -13 -35 -14 -54 -3 -13 6 -21 16 -18 21 4 6 11 5 17 -1
13 -13 37 -14 57 -1 12 7 12 12 -4 29 -11 12 -25 21 -33 21 -19 0 -16 18 5 23
9 3 4 5 -13 5 -16 0 -48 6 -70 12 -97 28 -370 53 -420 39z"/>
<path d="M1725 3060 c-22 -4 -53 -13 -70 -18 -27 -10 -24 -11 27 -10 32 1 59
0 61 -3 1 -2 1 -39 -1 -81 -3 -64 -6 -76 -19 -71 -11 4 -14 1 -11 -13 2 -10
-2 -23 -8 -29 -6 -5 -14 -28 -18 -50 -4 -34 -1 -45 19 -69 13 -15 29 -25 35
-21 8 5 8 10 0 20 -21 26 -29 73 -14 86 8 6 14 17 14 25 0 7 5 25 11 41 7 15
13 38 15 51 1 13 7 29 13 35 5 7 12 29 16 49 9 45 19 55 65 61 19 2 6 4 -30 4
-36 0 -83 -3 -105 -7z"/>
<path d="M1963 2963 c-7 -3 -13 -10 -13 -17 0 -15 -40 -64 -40 -50 -1 5 -9 -1
-20 -14 -11 -13 -23 -21 -28 -18 -19 12 -69 -27 -95 -75 -31 -57 -28 -77 6
-37 26 31 93 62 103 47 4 -6 15 -4 29 5 17 11 25 12 27 4 3 -8 14 -3 31 14 14
14 39 32 56 39 23 10 27 16 19 26 -7 9 -7 13 1 13 6 0 14 -7 17 -15 4 -8 12
-15 20 -15 8 0 11 6 7 16 -5 13 -3 15 13 6 14 -7 32 -7 62 1 39 10 57 27 30
27 -10 0 -10 2 0 8 7 5 10 16 6 25 -7 19 -24 23 -24 6 0 -6 -8 -8 -17 -5 -25
8 -175 15 -190 9z"/>
<path d="M1287 2880 c-19 -23 -22 -40 -7 -40 6 0 10 6 10 14 0 24 19 29 47 11
l26 -17 -33 -16 c-30 -14 -31 -17 -15 -29 19 -13 21 -12 -30 -28 -8 -2 -15
-14 -15 -25 0 -13 -7 -20 -20 -20 -11 0 -20 -4 -20 -10 0 -13 26 -12 78 3 32
10 39 16 30 25 -9 9 -3 11 24 10 19 -1 41 3 48 7 8 5 11 4 7 -2 -3 -5 20 -22
51 -38 31 -15 63 -35 71 -44 10 -12 15 -13 18 -3 7 17 23 15 23 -3 0 -18 -23
-19 -53 -4 -11 7 -52 11 -91 10 -60 -2 -75 -6 -97 -27 -14 -13 -26 -30 -27
-37 0 -6 -4 -22 -7 -34 -12 -39 12 -26 40 20 25 44 69 75 80 57 4 -6 1 -10 -4
-10 -6 0 -11 -13 -11 -30 0 -32 17 -41 27 -14 4 12 10 8 24 -15 21 -35 34 -37
84 -17 42 18 43 13 9 -37 -14 -21 -23 -41 -20 -44 3 -4 7 -4 9 -2 22 32 77 85
77 74 0 -8 -4 -15 -9 -15 -8 0 -23 -41 -17 -47 1 -2 17 4 34 13 28 13 32 21
32 55 0 40 -13 72 -40 99 -25 24 -76 94 -82 111 -8 21 -76 61 -83 49 -3 -5
-12 -7 -20 -4 -8 4 -13 10 -10 15 7 10 -50 41 -58 32 -4 -3 -18 2 -31 11 -31
20 -28 20 -49 -4z"/>
<path d="M2055 2802 c-6 -5 -30 -15 -55 -22 -31 -9 -39 -15 -26 -18 18 -4 18
-5 -5 -23 -17 -12 -21 -21 -13 -29 7 -7 19 -1 39 20 31 32 55 39 55 15 0 -18
17 -20 22 -3 6 18 28 0 28 -23 0 -23 15 -21 93 14 35 16 46 27 43 40 -3 13 2
17 21 17 13 0 21 4 18 10 -7 12 -207 14 -220 2z"/>
<path d="M3330 2624 c0 -8 5 -25 11 -36 9 -16 7 -30 -7 -62 -10 -22 -24 -47
-31 -54 -13 -13 -19 -59 -15 -114 2 -22 -19 -48 -119 -148 -67 -66 -128 -120
-136 -120 -9 0 -33 -5 -54 -11 -33 -10 -38 -16 -44 -50 -4 -22 -11 -41 -16
-45 -5 -3 -9 -13 -9 -23 0 -9 -6 -26 -14 -37 -13 -16 -18 -17 -35 -7 -20 13
-38 2 -27 -16 3 -5 -15 -15 -40 -22 -34 -10 -44 -18 -41 -30 4 -16 -41 -59
-62 -59 -5 0 -12 -7 -15 -16 -3 -8 -11 -12 -16 -9 -6 4 -9 3 -8 -2 4 -13 -24
-47 -62 -73 -19 -13 -37 -27 -40 -30 -3 -3 -36 -30 -75 -61 -79 -63 -110 -75
-133 -52 -15 14 -17 14 -25 -4 -5 -12 -33 -28 -70 -41 -59 -20 -88 -21 -57 -2
8 6 11 10 5 10 -20 0 -38 -18 -32 -33 8 -21 -2 -28 -25 -16 -24 13 -45 1 -23
-14 14 -11 13 -13 -4 -24 -16 -10 -22 -8 -41 14 l-23 27 -27 -31 c-19 -21 -35
-29 -54 -27 -18 2 -26 -2 -26 -12 0 -13 -2 -13 -13 -2 -8 7 -17 20 -20 28 -4
8 -4 -1 -1 -21 4 -23 1 -39 -6 -44 -9 -5 -10 -1 -6 13 5 15 1 24 -14 32 -11 6
-20 18 -20 28 0 15 -2 15 -10 2 -14 -22 -12 -27 10 -33 31 -8 24 -27 -10 -27
-19 0 -30 5 -30 14 0 8 -6 16 -12 18 -21 8 -38 -2 -38 -22 0 -16 -3 -17 -25
-7 -14 7 -25 17 -25 22 0 6 -4 3 -9 -4 -8 -12 -12 -10 -22 12 -14 30 -20 32
-36 16 -9 -9 -8 -19 3 -40 8 -16 19 -29 24 -29 26 0 150 -175 150 -213 0 -9
-13 -26 -30 -38 -26 -19 -47 -49 -35 -49 2 0 20 14 40 31 29 26 36 28 41 15 7
-19 -100 -166 -121 -166 -8 0 -21 -10 -29 -22 -9 -12 -16 -18 -16 -13 0 5 -21
-13 -47 -40 -108 -114 -163 -176 -163 -186 0 -6 -7 -17 -15 -26 -8 -8 -13 -19
-9 -24 3 -5 -2 -12 -10 -15 -17 -6 -22 -39 -8 -48 5 -3 15 7 23 22 69 135 149
231 278 337 34 28 76 70 94 95 30 42 32 43 35 21 2 -13 -6 -36 -17 -52 l-21
-29 25 12 c63 28 34 -26 -63 -119 -36 -35 -61 -63 -56 -63 6 0 23 14 39 30 16
17 33 30 38 30 11 0 57 51 57 63 0 4 4 7 9 7 5 0 11 -20 12 -44 4 -43 3 -45
-38 -67 -24 -13 -43 -26 -43 -29 0 -3 -9 -11 -20 -18 -17 -10 -24 -10 -44 3
-36 24 -70 10 -121 -52 -52 -64 -58 -83 -14 -52 22 15 34 18 41 11 8 -8 16 -6
28 9 14 15 19 16 23 6 3 -8 -3 -20 -14 -28 -10 -7 -19 -17 -19 -21 0 -4 -14
-30 -31 -58 -26 -42 -29 -53 -18 -66 10 -13 14 -11 30 13 18 27 19 27 19 5 0
-15 -10 -29 -30 -40 -16 -9 -41 -39 -55 -65 -28 -54 -29 -57 -17 -57 5 0 16
18 26 40 19 44 38 59 141 116 69 37 95 56 95 69 0 4 9 18 20 32 11 14 20 21
20 14 0 -6 5 -11 10 -11 6 0 10 18 10 39 0 22 4 42 9 45 5 3 12 26 15 51 4 24
12 47 17 51 14 8 9 142 -7 174 -15 32 -84 227 -91 258 -3 13 -16 30 -29 39
-13 8 -24 19 -24 23 0 10 97 12 117 1 10 -5 36 -17 58 -27 22 -11 45 -24 50
-30 6 -5 27 -23 48 -38 l39 -28 33 18 c19 10 36 16 39 13 2 -2 -15 -28 -39
-57 -47 -56 -48 -71 -9 -93 20 -10 29 -11 45 -1 22 14 24 7 5 -29 -12 -24 -11
-31 10 -72 14 -29 19 -49 13 -53 -6 -4 -6 -11 2 -20 9 -11 8 -18 -5 -32 -20
-23 -21 -36 0 -28 8 3 12 2 9 -4 -3 -6 -13 -10 -22 -10 -9 0 -13 -6 -10 -14 4
-11 -1 -14 -21 -13 -30 2 -42 -24 -22 -48 14 -17 45 15 163 164 37 47 74 93
81 101 28 35 30 43 7 31 -12 -7 -25 -10 -29 -7 -5 3 -24 -9 -42 -26 -20 -18
-36 -26 -38 -19 -4 13 -22 5 -22 -10 0 -6 5 -7 11 -3 13 8 11 1 -16 -43 -11
-18 -24 -33 -29 -33 -5 0 -4 6 1 13 15 18 24 49 14 42 -17 -10 -22 13 -7 28 8
8 13 17 10 19 -2 3 2 11 11 18 8 7 15 17 15 23 0 5 9 18 21 28 12 11 18 23 13
30 -5 8 -2 10 8 6 11 -4 31 13 64 54 27 33 60 67 74 76 l25 16 -23 -25 c-12
-14 -20 -32 -17 -40 4 -10 -4 -19 -24 -28 -31 -12 -45 -38 -15 -26 9 3 28 9
42 13 26 6 79 60 75 75 -2 4 3 16 11 25 8 10 36 45 63 79 100 126 100 126 125
113 22 -11 22 -10 6 6 -16 17 -15 20 6 49 13 17 31 53 41 79 10 26 22 50 26
53 5 3 9 13 9 22 0 9 9 28 20 42 11 14 20 32 20 41 0 8 12 26 26 40 36 33 74
122 44 104 -5 -3 -10 -1 -10 4 0 6 6 11 13 11 19 0 47 33 47 54 0 10 8 25 17
34 16 16 16 16 10 0 -3 -10 -3 -18 1 -18 11 0 57 50 71 78 14 27 35 29 28 3
-4 -16 2 -20 33 -23 28 -2 41 1 49 13 11 19 -7 42 -29 37 -7 -2 -14 2 -17 8
-2 7 5 10 22 7 24 -5 35 10 16 22 -16 9 -5 60 13 63 9 2 16 10 16 18 0 8 5 14
10 14 13 0 13 -17 0 -25 -6 -4 -8 -11 -5 -16 4 -5 2 -9 -3 -9 -6 0 -12 -6 -15
-14 -4 -10 0 -12 14 -9 14 4 19 0 19 -13 1 -11 9 -37 20 -59 18 -37 19 -38 20
-13 0 15 -7 34 -16 42 -9 9 -14 28 -12 43 l4 28 14 -27 c14 -30 30 -37 30 -13
0 8 5 15 11 15 7 0 9 -8 5 -20 -3 -11 -9 -29 -12 -40 -4 -12 -2 -20 5 -20 6 0
11 5 11 11 0 6 9 22 20 36 l20 26 0 -24 c0 -16 19 -43 55 -79 30 -30 55 -58
55 -62 0 -4 -13 -15 -29 -24 -17 -10 -28 -21 -25 -26 3 -4 -3 -5 -12 -1 -14 5
-16 3 -11 -11 5 -14 3 -16 -12 -11 -11 3 -22 1 -26 -4 -3 -6 0 -8 8 -5 8 3 18
1 21 -5 4 -6 34 11 71 39 35 26 74 51 87 55 13 4 35 16 50 26 14 11 34 19 45
20 12 0 13 2 5 6 -8 3 -24 1 -35 -4 -12 -6 -43 -19 -68 -31 l-46 -20 -42 50
c-24 27 -40 52 -37 55 3 4 6 2 6 -4 0 -6 10 -11 23 -10 12 0 29 -2 37 -5 8 -2
12 -3 8 -1 -15 9 -8 23 12 23 34 0 22 26 -19 40 -47 15 -89 58 -97 99 -8 40
-24 40 -24 1 0 -16 -5 -30 -11 -30 -6 0 -8 9 -4 20 5 16 2 20 -17 18 -37 -5
-36 40 2 77 27 26 30 34 30 94 1 92 34 133 57 71 9 -25 9 -30 -3 -30 -18 0 -9
-98 14 -150 19 -41 63 -103 69 -96 3 3 -6 20 -20 38 -29 39 -57 96 -57 115 0
24 21 14 97 -49 99 -83 127 -102 92 -62 -30 33 -69 113 -69 142 0 11 -28 50
-62 87 -48 52 -63 75 -64 99 -1 73 -5 96 -14 96 -5 0 -10 -7 -10 -16z"/>
<path d="M1260 2077 c0 -20 81 -174 167 -315 51 -83 93 -159 93 -167 0 -9 7
-18 15 -21 8 -4 13 -9 11 -13 -2 -3 2 -15 10 -26 8 -10 14 -15 14 -10 0 11 38
-52 46 -77 6 -17 34 -26 34 -10 0 4 -7 28 -15 55 -8 26 -11 47 -8 47 4 0 2 5
-5 12 -7 7 -13 23 -13 37 -1 24 -2 24 -8 -4 l-6 -29 -36 54 c-20 30 -45 71
-56 90 -10 19 -36 62 -58 95 -21 33 -50 80 -63 105 -13 25 -36 61 -50 80 -15
19 -37 50 -49 70 -12 19 -23 31 -23 27z"/>
<path d="M3811 1955 c55 -62 62 -88 54 -207 l-7 -108 25 0 c36 0 58 -30 51
-68 -5 -24 -12 -32 -28 -33 -19 0 -19 -1 4 -11 l25 -10 -25 -11 -25 -11 28 -4
c15 -2 27 -7 27 -11 0 -5 13 -8 28 -7 l29 1 -2 105 c-2 96 -19 187 -45 245 -5
11 -14 33 -20 48 -6 17 -14 25 -22 21 -6 -4 -8 -3 -5 3 7 12 -26 46 -36 37 -3
-3 -23 7 -44 22 l-38 28 26 -29z"/>
<path d="M2945 1537 c-45 -45 -117 -125 -160 -177 -44 -52 -90 -106 -102 -120
-30 -32 -37 -55 -24 -77 6 -12 5 -26 -5 -45 -9 -17 -10 -28 -4 -28 17 0 11
-35 -9 -52 -11 -9 -28 -14 -39 -11 -12 3 -22 -1 -25 -11 -4 -10 -1 -13 9 -9
10 4 14 -2 14 -20 0 -23 22 -57 37 -57 16 0 93 73 93 88 0 9 -16 31 -36 49
l-36 32 36 50 c22 30 42 48 50 45 8 -3 17 -1 21 5 3 7 0 8 -9 5 -27 -10 -18
20 15 52 41 39 121 148 148 202 12 23 30 53 41 65 10 12 28 32 38 45 14 16 21
19 25 10 2 -7 4 -1 3 14 0 16 -1 28 -1 28 0 0 -36 -37 -80 -83z"/>
<path d="M2526 926 c-8 -17 -36 -50 -62 -71 -25 -22 -61 -53 -78 -70 -18 -16
-48 -41 -68 -54 -36 -25 -65 -61 -50 -61 5 0 17 9 27 20 10 11 28 20 40 20 11
0 27 6 33 12 10 10 12 8 9 -11 -2 -13 -30 -53 -63 -89 -32 -35 -63 -73 -69
-83 -5 -9 -82 -91 -170 -181 -88 -90 -176 -183 -195 -207 -19 -24 -57 -66 -84
-95 -37 -39 -45 -52 -32 -54 27 -6 45 5 55 32 19 47 119 162 325 370 200 202
296 313 296 341 0 17 33 75 43 75 4 0 7 5 7 10 0 11 32 61 63 96 15 18 16 22
3 27 -9 4 -20 -5 -30 -27z"/>
<path d="M2595 613 c-31 -43 -63 -82 -71 -86 -21 -12 -36 1 -25 21 12 22 -6
46 -37 49 -13 2 -21 0 -19 -5 3 -4 -9 -8 -26 -8 -22 -1 -41 -13 -69 -43 -21
-22 -41 -41 -45 -41 -3 0 -12 -8 -19 -17 -15 -21 -18 -63 -5 -63 5 0 11 10 13
23 2 14 9 21 21 21 10 -1 17 5 17 16 0 10 13 28 30 40 22 16 28 17 24 6 -8
-20 10 -21 26 -1 7 8 21 15 31 15 11 0 19 5 19 12 0 6 2 9 5 6 8 -8 -6 -39
-15 -33 -4 3 -15 -6 -24 -20 -25 -39 -19 -42 15 -7 38 38 45 40 51 7 3 -16 -1
-30 -13 -41 -18 -16 -19 -16 -19 -1 0 10 -3 17 -6 17 -4 0 -35 -30 -71 -66
-52 -53 -62 -68 -52 -80 9 -11 9 -21 -1 -44 -18 -43 -34 -38 -27 10 3 22 1 43
-4 46 -5 3 -10 -3 -11 -13 -4 -51 -3 -73 4 -73 4 0 5 -8 2 -17 -6 -20 38 25
101 101 22 27 46 55 53 62 7 8 10 19 6 25 -4 8 -3 9 4 5 13 -8 116 98 139 141
8 15 28 43 46 61 22 23 28 35 20 43 -7 7 -27 -12 -68 -68z"/>
<path d="M3910 523 c-14 -9 -27 -20 -30 -23 -3 -3 -23 -17 -45 -30 -58 -36
-85 -61 -85 -81 0 -10 -12 -27 -27 -38 -14 -12 -23 -24 -20 -27 8 -9 -46 -72
-97 -112 -9 -7 -16 -18 -16 -25 0 -8 4 -7 11 3 9 13 10 13 6 0 -2 -8 -12 -14
-21 -13 -11 0 -15 -4 -12 -13 7 -19 1 -18 -20 4 -17 16 -17 16 -12 -3 4 -17
-1 -20 -31 -22 -30 -1 -32 0 -13 8 12 4 22 13 22 19 0 14 -4 13 -49 -11 -31
-16 -44 -18 -60 -10 -26 14 -40 14 -21 0 12 -9 11 -10 -7 -6 -15 3 -20 1 -16
-9 3 -8 9 -14 14 -14 4 0 6 -7 3 -15 -8 -19 6 -19 34 1 12 8 22 12 22 7 -1
-15 -27 -43 -40 -43 -7 0 -11 -3 -7 -6 3 -4 20 -1 38 5 35 12 61 4 34 -12 -14
-8 -15 -11 -4 -18 11 -7 11 -9 -2 -9 -9 0 -19 -7 -23 -15 -4 -11 2 -15 23 -15
24 0 42 17 113 103 46 56 93 114 103 129 18 24 93 87 155 128 12 8 28 20 34
25 25 21 107 75 115 75 8 0 21 23 21 36 0 8 -214 -138 -257 -176 -14 -12 -17
-2 -5 16 4 6 34 30 67 55 33 24 64 47 70 52 102 76 127 97 117 97 -6 0 -17 -7
-26 -15 -8 -8 -17 -15 -20 -15 -4 0 -40 -25 -81 -55 -72 -54 -112 -72 -85 -40
12 15 128 95 137 95 2 0 11 7 19 15 21 20 4 19 -26 -2z"/>
<path d="M1402 413 c-7 -27 -17 -93 -22 -148 -6 -55 -14 -129 -20 -165 -16
-106 -19 -100 55 -100 54 0 67 3 71 18 4 9 12 31 20 49 8 17 14 36 14 41 0 14
70 136 80 140 5 2 6 10 3 18 -3 9 1 14 11 14 13 0 10 8 -13 32 -35 38 -41 34
-66 -37 -10 -27 -22 -54 -25 -60 -4 -5 -10 -22 -14 -37 -5 -22 -3 -26 9 -22
10 4 15 0 15 -10 0 -9 -5 -16 -11 -16 -6 0 -9 -9 -6 -20 3 -13 0 -20 -9 -20
-8 0 -14 -9 -14 -20 0 -11 -5 -20 -11 -20 -10 0 -9 76 3 145 2 13 -6 23 -24
33 -31 14 -36 27 -14 35 8 3 19 -5 26 -19 16 -28 30 -31 30 -6 0 10 5 23 12
30 9 9 9 15 0 24 -9 9 -12 7 -12 -11 0 -13 -4 -20 -11 -16 -5 4 -9 17 -8 28 3
41 -1 58 -11 52 -6 -3 -7 -17 -4 -31 4 -17 2 -24 -9 -24 -8 0 -18 7 -21 16 -8
21 -8 26 3 20 10 -6 31 37 31 63 0 10 -7 24 -15 31 -8 7 -15 19 -15 26 0 31
-17 11 -28 -33z"/>
<path d="M2962 420 c-23 -31 -27 -45 -14 -53 4 -2 2 -2 -5 -1 -15 4 -55 -43
-72 -85 -8 -17 -18 -28 -24 -24 -6 4 -8 0 -4 -9 3 -9 -5 -37 -18 -62 -13 -26
-25 -50 -26 -54 -5 -19 -13 -38 -19 -42 -9 -7 -30 -83 -25 -89 3 -2 13 5 22
16 10 11 24 18 31 15 9 -3 13 2 10 14 -2 11 3 24 10 30 8 6 15 25 16 41 0 17
4 29 8 27 4 -3 14 11 22 31 16 37 43 56 55 37 3 -5 6 16 6 48 0 44 -3 56 -14
52 -11 -4 -11 -1 -2 16 6 12 17 19 24 17 6 -3 24 6 40 20 28 27 38 47 12 25
-23 -19 -30 -5 -11 22 32 46 11 54 -22 8z"/>
</g>
</svg>
